
<svg xmlns="http://www.w3.org/2000/svg" width="32px" height="32px"  viewBox="0 0 24 24"><g>
                <path d="M3.089,16.71C3.123,13.003,5.45,9.582,8.97,8.326c3.511-1.253,7.483-0.17,9.879,2.681
                    c1.341,1.596,2.042,3.627,2.061,5.703c0.006,0.643,1.006,0.645,1,0c-0.037-4.118-2.597-7.836-6.46-9.291
                    c-3.874-1.46-8.424-0.243-11.06,2.944c-1.483,1.794-2.281,4.023-2.302,6.348C2.083,17.354,3.083,17.355,3.089,16.71L3.089,16.71z"
                    />
                <path d="M5.985,16.71c0.043-3.279,2.703-6.015,6.015-6.015c3.312,0,5.972,2.736,6.015,6.015
                    c0.008,0.643,1.008,0.645,1,0c-0.038-2.923-1.833-5.537-4.575-6.577c-2.74-1.039-5.976-0.165-7.834,2.095
                    c-1.046,1.272-1.6,2.838-1.621,4.482C4.976,17.354,5.976,17.354,5.985,16.71L5.985,16.71z"/>
                <path d="M8.88,16.71c0.023-1.7,1.4-3.122,3.12-3.12c1.72,0.002,3.096,1.416,3.12,3.12
                    c0.009,0.643,1.009,0.645,1,0c-0.024-1.72-1.079-3.249-2.689-3.862c-1.584-0.603-3.481-0.111-4.566,1.192
                    c-0.631,0.758-0.971,1.683-0.984,2.67C7.872,17.354,8.872,17.354,8.88,16.71L8.88,16.71z"/>
            </g></svg>